<svg width="16" height="16" viewBox="0 0 16 16" fill="none" xmlns="http://www.w3.org/2000/svg">
<rect width="16" height="16" fill="#FFCC00"/>
<path d="M3.47949 5.25684V10H2.24609V5.25684H3.47949ZM7.78027 5.25684V10H6.70215V6.79785L6.27148 10H5.50684L5.05273 6.87109V10H3.97461V5.25684H5.57129C5.61816 5.54199 5.66797 5.87793 5.7207 6.26465L5.89062 7.47168L6.17188 5.25684H7.78027ZM10.7744 5.25684L10.3438 7.35449L10.9941 10H9.85156C9.71484 9.52734 9.58984 8.95215 9.47656 8.27441C9.44531 8.57324 9.40234 8.89062 9.34766 9.22656L9.23047 10H8.0293L8.47461 7.35449L8.0293 5.25684H9.22168C9.24316 5.3877 9.28613 5.60547 9.35059 5.91016C9.40137 6.14258 9.44336 6.35547 9.47656 6.54883L9.74023 5.25684H10.7744ZM13.8271 5.25684V10H12.6436V9.71875C12.5303 9.83594 12.4111 9.92383 12.2861 9.98242C12.1611 10.041 12.0303 10.0703 11.8936 10.0703C11.71 10.0703 11.5508 10.0225 11.416 9.92676C11.2812 9.8291 11.1943 9.7168 11.1553 9.58984C11.1182 9.46289 11.0996 9.25586 11.0996 8.96875V7.14941C11.0996 6.85059 11.1182 6.63867 11.1553 6.51367C11.1943 6.38867 11.2822 6.2793 11.4189 6.18555C11.5557 6.08984 11.7188 6.04199 11.9082 6.04199C12.0547 6.04199 12.1885 6.06836 12.3096 6.12109C12.4326 6.17383 12.5439 6.25293 12.6436 6.3584V5.25684H13.8271ZM12.6436 7.09082C12.6436 6.94824 12.6309 6.85254 12.6055 6.80371C12.582 6.75488 12.5342 6.73047 12.4619 6.73047C12.3916 6.73047 12.3438 6.75293 12.3184 6.79785C12.2949 6.84082 12.2832 6.93848 12.2832 7.09082V8.99512C12.2832 9.15332 12.2949 9.25781 12.3184 9.30859C12.3418 9.35742 12.3867 9.38184 12.4531 9.38184C12.5293 9.38184 12.5801 9.35449 12.6055 9.2998C12.6309 9.24316 12.6436 9.10645 12.6436 8.88965V7.09082Z" fill="black"/>
</svg>
